# xmcd
#
# Track frame offsets:
#	150
#	25760
#	44509
#	56222
#	67307
#	86272
#	100202
#	115022
#	142548
#	155305
#	167258
#	176844
#	187752
#	200363
#	214611
#	226865
#
# Disc length: 3257 seconds
#
# Revision: 0
# Processed by: cddbd v1.5.1PL0 Copyright (c) Steve Scherf et al.
# Submitted via: audiograbber 1.83.01
#
DISCID=c80cb710
DTITLE=Compilation - Love Songs CD2
DYEAR=1900
DGENRE=
TTITLE0=Kool and the Gang - Cherish
TTITLE1=Leo Sayer - When I Need You
TTITLE2=The Platters - Only You (And You Alone)
TTITLE3=Roy Orbison - Only the Lonely
TTITLE4=Ray Charles - I Can't Stop Loving You
TTITLE5=The Walker Brothers - The Sun Ain't Gonna Shine Anymore
TTITLE6=Zager and Evans - In the Year 2525
TTITLE7=Garry Rafferty - Baker Street
TTITLE8=Percy Sledge - When a Man Loves a Woman
TTITLE9=Tammy Wynette - Stand by Your Man
TTITLE10=Sam Cooke - Wonderful World
TTITLE11=The Drifters - Save the Last Dance for Me
TTITLE12=Al Martino - Spanish Eyes
TTITLE13=Bellamy Brothers - If I Said You Have a Beautiful Body
TTITLE14=Four Tops - I Can't Help Myself
TTITLE15=Bobbiy McFerrin - Don't Worry be Happy
EXTD=
EXTT0=
EXTT1=
EXTT2=
EXTT3=
EXTT4=
EXTT5=
EXTT6=
EXTT7=
EXTT8=
EXTT9=
EXTT10=
EXTT11=
EXTT12=
EXTT13=
EXTT14=
EXTT15=
PLAYORDER=
